<svg width="360" height="263" viewBox="0 0 360 263" fill="none" xmlns="http://www.w3.org/2000/svg">
<path d="M0 0H121V231C121 248.673 106.673 263 89 263H0V0Z" fill="#8F9FD3"/>
<path d="M121 0H242V140C242 157.673 227.673 172 210 172H121V0Z" fill="#8F9FD3"/>
<path d="M242 0H360V55C360 72.6731 345.673 87 328 87H242V0Z" fill="#8F9FD3"/>
<path d="M121 172H182V214H121V172Z" fill="#8F9FD3"/>
<path d="M121 215C121 191.252 140.252 172 164 172H183V215H121Z" fill="#FFF3E7"/>
<path d="M241 86H303V129H241V86Z" fill="#8F9FD3"/>
<path d="M242 130C242 106.252 261.252 87 285 87H304V130H242Z" fill="#FFF3E7"/>
</svg>