<svg width="360" height="263" viewBox="0 0 360 263" fill="none" xmlns="http://www.w3.org/2000/svg">
<path d="M360 0H239V231C239 248.673 253.327 263 271 263H360V0Z" fill="#5EBA97"/>
<path d="M239 0H118V140C118 157.673 132.327 172 150 172H239V0Z" fill="#5EBA97"/>
<path d="M118 0H0V55C0 72.6731 14.3269 87 32 87H118V0Z" fill="#5EBA97"/>
<path d="M239 172H178V214H239V172Z" fill="#5EBA97"/>
<path d="M239 215C239 191.252 219.748 172 196 172H177V215H239Z" fill="#FFF3E7"/>
<path d="M119 86H57V129H119V86Z" fill="#5EBA97"/>
<path d="M118 130C118 106.252 98.7482 87 75 87H56V130H118Z" fill="#FFF3E7"/>
</svg>
